<svg
                                        xmlns="http://www.w3.org/2000/svg"
                                        x="0px"
                                        y="0px"
                                        width="30"
                                        height="30"
                                        viewBox="0 0 226 226"
                                        style="fill: #000000"
                                    >
                                        <g
                                            fill="none"
                                            fill-rule="nonzero"
                                            stroke="none"
                                            stroke-width="1"
                                            stroke-linecap="butt"
                                            stroke-linejoin="miter"
                                            stroke-miterlimit="10"
                                            stroke-dasharray=""
                                            stroke-dashoffset="0"
                                            font-family="none"
                                            font-weight="none"
                                            font-size="none"
                                            text-anchor="none"
                                            style="mix-blend-mode: normal"
                                        >
                                            <path
                                                d="M0,226v-226h226v226z"
                                                fill="none"
                                            ></path>
                                            <g fill="#ffc65c">
                                                <path
                                                    d="M226,113c0,-62.40818 -50.59182,-113 -113,-113c-62.40818,0 -113,50.59182 -113,113c0,62.40818 50.59182,113 113,113c62.3743,-0.08171 112.91829,-50.6257 113,-113zM167.84985,177.95699c7.87113,-19.54719 12.00637,-40.39721 12.19129,-61.46882h38.80844c-0.84576,26.19817 -11.41005,51.14421 -29.63637,69.98196c-6.90981,-3.34169 -14.04901,-6.18661 -21.36336,-8.51314zM36.7875,186.47013c-18.22632,-18.83775 -28.79061,-43.78379 -29.63637,-69.98196h38.80844c0.18492,21.07161 4.32016,41.92164 12.19129,61.46882c-7.31434,2.32652 -14.45355,5.17145 -21.36336,8.51314zM36.7875,39.52987c6.91003,3.34172 14.04948,6.18664 21.36406,8.51314c-7.86114,19.52004 -11.99575,40.34004 -12.18987,61.38266h-38.80844c0.86636,-26.16785 11.42835,-51.07952 29.63425,-69.8958zM189.2125,39.52987c18.2059,18.81627 28.76789,43.72795 29.63425,69.8958h-38.80844c-0.19413,-21.04262 -4.32874,-41.86262 -12.18987,-61.38266c7.31458,-2.32649 14.45403,-5.17141 21.36406,-8.51314zM172.98005,109.42567h-56.4488v-53.02419c15.10942,-0.25469 30.12774,-2.39723 44.70563,-6.37779c7.58977,18.89353 11.57286,39.0417 11.74317,59.40198zM116.53125,49.33933v-42.07837c16.61806,1.71018 31.43236,15.40755 41.72207,36.24757c-13.62066,3.62235 -27.6302,5.58023 -41.72207,5.8308zM109.46875,7.26096v42.07838c-14.09187,-0.25057 -28.10142,-2.20845 -41.72207,-5.8308c10.28971,-20.84002 25.10401,-34.53739 41.72207,-36.24757zM109.46875,56.40148v53.02419h-56.4488c0.17031,-20.36028 4.1534,-40.50846 11.74317,-59.40198c14.57788,3.98056 29.5962,6.1231 44.70563,6.37779zM53.01889,116.48817h56.44986v53.11c-15.10944,0.25481 -30.12776,2.39747 -44.70562,6.37814c-7.59984,-18.92064 -11.58345,-39.09887 -11.74423,-59.48814zM109.46875,176.66067v42.07837c-16.61806,-1.71018 -31.43236,-15.40755 -41.72207,-36.24757c13.62066,-3.62235 27.6302,-5.58023 41.72207,-5.8308zM116.53125,218.73904v-42.07837c14.09187,0.25057 28.10142,2.20845 41.72207,5.8308c-10.28971,20.84002 -25.10401,34.53916 -41.72207,36.24757zM116.53125,169.59852v-53.11h56.44986c-0.16083,20.38915 -4.14444,40.56726 -11.74423,59.48779c-14.57788,-3.98056 -29.5962,-6.1231 -44.70562,-6.37779zM183.79485,34.27113c-6.11942,2.83805 -12.41706,5.27481 -18.85299,7.29486c-5.34725,-11.67687 -13.16121,-22.05642 -22.90404,-30.42419c15.49832,4.43031 29.78034,12.34117 41.75703,23.12933zM61.05814,41.56599c-6.43593,-2.02004 -12.73357,-4.45681 -18.85299,-7.29486c11.97665,-10.78829 26.25868,-18.69927 41.75703,-23.12969c-9.74287,8.36788 -17.55684,18.74754 -22.90404,30.42454zM42.20515,191.72887c6.11942,-2.83805 12.41706,-5.27481 18.85299,-7.29486c5.34725,11.67687 13.16121,22.05642 22.90404,30.42419c-15.49832,-4.43031 -29.78034,-12.34117 -41.75703,-23.12933zM164.94186,184.43401c6.43593,2.02004 12.73357,4.45681 18.85299,7.29486c-11.97665,10.78829 -26.25868,18.69927 -41.75703,23.12969c9.74287,-8.36788 17.55684,-18.74754 22.90404,-30.42454z"
                                                ></path>
                                            </g>
                                        </g>
                                    </svg>